<?xml version="1.0" standalone="no"?>
<!DOCTYPE svg PUBLIC "-//W3C//DTD SVG 20010904//EN"
 "http://www.w3.org/TR/2001/REC-SVG-20010904/DTD/svg10.dtd">
<svg version="1.0" xmlns="http://www.w3.org/2000/svg"
 width="134.000000pt" height="134.000000pt" viewBox="0 0 134.000000 134.000000"
 preserveAspectRatio="xMidYMid meet">
<metadata>
Created by potrace 1.14, written by Peter Selinger 2001-2017
</metadata>
<g transform="translate(0.000000,134.000000) scale(0.100000,-0.100000)"
fill="#000000" stroke="none">
<path d="M0 670 l0 -670 670 0 670 0 0 670 0 670 -670 0 -670 0 0 -670z m322
190 c71 -20 90 -89 39 -141 -24 -24 -26 -29 -12 -29 31 0 71 -49 71 -87 0 -82
-55 -112 -207 -113 -96 0 -130 10 -83 25 19 6 20 15 20 160 0 144 -1 155 -20
165 -11 6 -20 15 -20 20 0 13 165 13 212 0z m343 -15 c36 -35 31 -62 -17 -107
l-42 -38 44 -45 c24 -25 47 -45 51 -45 4 0 17 23 29 52 21 49 21 52 4 65 -10
7 -21 13 -26 13 -4 0 -8 5 -8 10 0 6 30 10 70 10 71 0 91 -13 48 -29 -15 -5
-36 -34 -57 -80 l-35 -71 23 -24 c13 -13 36 -30 52 -36 43 -18 35 -30 -18 -30
-34 0 -53 6 -69 21 l-23 21 -37 -23 c-46 -28 -119 -31 -158 -6 -27 18 -45 67
-38 105 3 13 19 38 37 55 33 32 33 32 14 56 -52 64 -2 151 87 151 34 0 51 -6
69 -25z m447 15 c44 -13 93 -52 113 -91 32 -61 9 -175 -46 -226 -45 -41 -91
-53 -204 -53 -106 0 -126 7 -80 28 l25 12 0 150 c0 150 0 150 -25 162 -13 6
-22 15 -19 19 7 12 191 11 236 -1z"/>
<path d="M210 771 c0 -33 4 -62 8 -65 11 -7 82 10 94 22 6 6 11 23 11 38 0 36
-35 64 -79 64 l-34 0 0 -59z"/>
<path d="M210 595 l0 -65 50 0 c41 0 56 5 75 25 53 52 18 105 -70 105 l-55 0
0 -65z"/>
<path d="M562 828 c-18 -18 -14 -63 6 -81 17 -16 20 -15 40 6 35 37 24 87 -18
87 -9 0 -21 -5 -28 -12z"/>
<path d="M530 651 c-18 -35 -12 -88 12 -105 32 -23 85 -18 117 11 6 4 -101
113 -111 113 -4 0 -12 -9 -18 -19z"/>
<path d="M980 679 l0 -151 60 4 c49 3 65 10 90 33 38 37 54 85 45 141 -11 78
-71 124 -162 124 l-33 0 0 -151z"/>
</g>
</svg>
